<svg id="Capa_1" data-name="Capa 1" xmlns="http://www.w3.org/2000/svg" viewBox="0 0 63.32 103.29"><defs><style>.cls-1{fill:#1d1d1b;}.cls-2{fill:none;}</style></defs><title>PASSUS LOGO</title><path class="cls-1" d="M6,34.78H1V2.26H9.22c4,0,6,2,6,6V20.73c0,4-2,6-6,6H6v8ZM8.91,7.19H6V21.91H8.91A1.65,1.65,0,0,0,10.77,20V9.09A1.65,1.65,0,0,0,8.91,7.19Z" transform="translate(-1 -2.21)"/><path class="cls-1" d="M31.83,59.16v5.3c0,4-2,6-6,6H23.6c-4,0-6-2-6-6V57.62h4.83v6.69a1.65,1.65,0,0,0,1.9,1.86H25a1.65,1.65,0,0,0,1.9-1.86V59.85a2.86,2.86,0,0,0-1.39-2.65l-5-3.67a6,6,0,0,1-2.88-5.62V43.45c0-4,2-6,6-6h2.09q6,0,6,6v5.9H26.85V43.59A1.63,1.63,0,0,0,25,41.73h-0.6a1.63,1.63,0,0,0-1.86,1.86v3.62a2.81,2.81,0,0,0,1.39,2.65l5,3.67A5.93,5.93,0,0,1,31.83,59.16Z" transform="translate(-1 -2.21)"/><path class="cls-1" d="M47.91,59.16v5.3c0,4-2,6-6,6H39.68c-4,0-6-2-6-6V57.62h4.83v6.69a1.65,1.65,0,0,0,1.9,1.86h0.65A1.65,1.65,0,0,0,43,64.31V59.85a2.86,2.86,0,0,0-1.39-2.65l-5-3.67a6,6,0,0,1-2.88-5.62V43.45c0-4,2-6,6-6h2.09q6,0,6,6v5.9H42.94V43.59a1.63,1.63,0,0,0-1.86-1.86h-0.6a1.63,1.63,0,0,0-1.86,1.86v3.62A2.81,2.81,0,0,0,40,49.86l5,3.67A5.93,5.93,0,0,1,47.91,59.16Z" transform="translate(-1 -2.21)"/><path class="cls-1" d="M47.91,99.46c0,4-2,6-6,6H39.73c-4,0-6-2-6-6V72.7h5V99.23a1.66,1.66,0,0,0,1.9,1.9h0.51a1.65,1.65,0,0,0,1.86-1.9V72.7h5V99.46Z" transform="translate(-1 -2.21)"/><path class="cls-1" d="M64.32,94.16v5.3c0,4-2,6-6,6H56.09c-4,0-6-2-6-6V92.63h4.83v6.69a1.65,1.65,0,0,0,1.9,1.86h0.65a1.65,1.65,0,0,0,1.9-1.86V94.86A2.86,2.86,0,0,0,58,92.21l-5-3.67a6,6,0,0,1-2.88-5.62V78.46c0-4,2-6,6-6h2.09q6,0,6,6v5.9H59.35V78.6a1.63,1.63,0,0,0-1.86-1.86h-0.6A1.63,1.63,0,0,0,55,78.6v3.62a2.81,2.81,0,0,0,1.39,2.65l5,3.67A5.93,5.93,0,0,1,64.32,94.16Z" transform="translate(-1 -2.21)"/><polygon class="cls-1" points="19.86 32.57 20.48 27.46 20.45 27.46 19.86 32.57"/><path d="M27.39,2.21H20.9L16.33,34.78h4.52l0.59-5.11h0l0.35-2.9h4.35l1,8H32ZM25.57,21.93H22.43L24,9l1.58,12.94h0Z" transform="translate(-1 -2.21)"/><rect class="cls-1" x="5.74" y="81.85" width="4.83" height="14.22" transform="translate(96.12 78.59) rotate(90)"/><rect class="cls-1" x="3.47" y="49.07" width="4.83" height="9.77" transform="translate(58.84 45.86) rotate(90)"/><rect class="cls-1" x="22.3" y="86.58" width="4.83" height="4.75" transform="translate(112.67 62.03) rotate(90)"/><rect class="cls-1" x="57.14" y="49.23" width="4.83" height="9.44" transform="translate(112.5 -7.81) rotate(90)"/><rect class="cls-1" x="38.38" y="16.12" width="4.83" height="4.75" transform="translate(58.29 -24.51) rotate(90)"/><rect class="cls-1" x="54.61" y="11.41" width="4.83" height="14.22" transform="translate(74.55 -40.72) rotate(90)"/></svg>